<svg width="18" height="16" viewBox="0 0 18 16" fill="none" xmlns="http://www.w3.org/2000/svg">
<path d="M16.3333 2.49996H13.5L12.825 0.608293C12.7784 0.478851 12.6929 0.366963 12.5803 0.287913C12.4677 0.208862 12.3334 0.166505 12.1958 0.166626H5.80417C5.52292 0.166626 5.27083 0.34371 5.17708 0.608293L4.5 2.49996H1.66667C0.745833 2.49996 0 3.24579 0 4.16663V13.6666C0 14.5875 0.745833 15.3333 1.66667 15.3333H16.3333C17.2542 15.3333 18 14.5875 18 13.6666V4.16663C18 3.24579 17.2542 2.49996 16.3333 2.49996ZM16.5 13.6666C16.5 13.7583 16.425 13.8333 16.3333 13.8333H1.66667C1.575 13.8333 1.5 13.7583 1.5 13.6666V4.16663C1.5 4.07496 1.575 3.99996 1.66667 3.99996H5.55625L5.9125 3.00413L6.38958 1.66663H11.6083L12.0854 3.00413L12.4417 3.99996H16.3333C16.425 3.99996 16.5 4.07496 16.5 4.16663V13.6666ZM9 5.33329C7.15833 5.33329 5.66667 6.82496 5.66667 8.66663C5.66667 10.5083 7.15833 12 9 12C10.8417 12 12.3333 10.5083 12.3333 8.66663C12.3333 6.82496 10.8417 5.33329 9 5.33329ZM9 10.6666C7.89583 10.6666 7 9.77079 7 8.66663C7 7.56246 7.89583 6.66663 9 6.66663C10.1042 6.66663 11 7.56246 11 8.66663C11 9.77079 10.1042 10.6666 9 10.6666Z" fill="#797979"/>
</svg>
