<svg width="30" height="17" viewBox="0 0 30 17" fill="none" xmlns="http://www.w3.org/2000/svg">
<path d="M1.66667 13.6667H28.3333V16.3333H1.66667V13.6667ZM3.2 8.26668L4.33334 6.29334L5.46667 8.26668L7.2 7.26668L6.06667 5.29334H8.33334V3.29334H6.06667L7.2 1.33334L5.46667 0.333344L4.33334 2.29334L3.2 0.333344L1.46667 1.33334L2.6 3.29334H0.333336V5.29334H2.6L1.46667 7.26668L3.2 8.26668ZM12.1333 7.26668L13.8667 8.26668L15 6.29334L16.1333 8.26668L17.8667 7.26668L16.7333 5.29334H19V3.29334H16.7333L17.8667 1.33334L16.1333 0.333344L15 2.29334L13.8667 0.333344L12.1333 1.33334L13.2667 3.29334H11V5.29334H13.2667L12.1333 7.26668ZM29.6667 3.29334H27.4L28.5333 1.33334L26.8 0.333344L25.6667 2.29334L24.5333 0.333344L22.8 1.33334L23.9333 3.29334H21.6667V5.29334H23.9333L22.8 7.26668L24.5333 8.26668L25.6667 6.29334L26.8 8.26668L28.5333 7.26668L27.4 5.29334H29.6667V3.29334Z" fill="#797979"/>
</svg>
