<svg width="28" height="24" viewBox="0 0 28 24" fill="none" xmlns="http://www.w3.org/2000/svg">
<path d="M26.0107 0C26.7413 0 27.3333 0.593333 27.3333 1.324V22.676C27.3309 23.0262 27.1908 23.3613 26.9433 23.609C26.6958 23.8568 26.3608 23.9972 26.0107 24H1.98933C1.63842 23.9996 1.30199 23.86 1.05398 23.6117C0.805974 23.3635 0.666664 23.0269 0.666664 22.676V1.324C0.669104 0.973838 0.809198 0.63869 1.05668 0.390957C1.30416 0.143224 1.63917 0.00279287 1.98933 0H26.0107ZM24.6667 2.66667H3.33333V21.3333H24.6667V2.66667ZM22 16V18.6667H6V16H22ZM14 5.33333V13.3333H6V5.33333H14ZM22 10.6667V13.3333H16.6667V10.6667H22ZM11.3333 8H8.66666V10.6667H11.3333V8ZM22 5.33333V8H16.6667V5.33333H22Z" fill="#797979"/>
</svg>
