<svg width="32" height="32" viewBox="0 0 32 32" fill="none" xmlns="http://www.w3.org/2000/svg">
<circle cx="16" cy="16" r="16" fill="#D9D9D9"/>
<path d="M20.375 16C20.8723 16 21.3492 16.1975 21.7008 16.5492C22.0525 16.9008 22.25 17.3777 22.25 17.875V18.5C22.25 20.9637 19.925 23.5 16 23.5C12.075 23.5 9.75 20.9637 9.75 18.5V17.875C9.75 17.3777 9.94754 16.9008 10.2992 16.5492C10.6508 16.1975 11.1277 16 11.625 16H20.375ZM20.375 17.25H11.625C11.4592 17.25 11.3003 17.3158 11.1831 17.4331C11.0658 17.5503 11 17.7092 11 17.875V18.5C11 20.2975 12.79 22.25 16 22.25C19.21 22.25 21 20.2975 21 18.5V17.875C21 17.7092 20.9342 17.5503 20.8169 17.4331C20.6997 17.3158 20.5408 17.25 20.375 17.25ZM16 7.875C16.9117 7.875 17.786 8.23716 18.4307 8.88182C19.0753 9.52648 19.4375 10.4008 19.4375 11.3125C19.4375 12.2242 19.0753 13.0985 18.4307 13.7432C17.786 14.3878 16.9117 14.75 16 14.75C15.0883 14.75 14.214 14.3878 13.5693 13.7432C12.9247 13.0985 12.5625 12.2242 12.5625 11.3125C12.5625 10.4008 12.9247 9.52648 13.5693 8.88182C14.214 8.23716 15.0883 7.875 16 7.875ZM16 9.125C15.4198 9.125 14.8634 9.35547 14.4532 9.7657C14.043 10.1759 13.8125 10.7323 13.8125 11.3125C13.8125 11.8927 14.043 12.4491 14.4532 12.8593C14.8634 13.2695 15.4198 13.5 16 13.5C16.5802 13.5 17.1366 13.2695 17.5468 12.8593C17.957 12.4491 18.1875 11.8927 18.1875 11.3125C18.1875 10.7323 17.957 10.1759 17.5468 9.7657C17.1366 9.35547 16.5802 9.125 16 9.125Z" fill="#797979"/>
</svg>
